<svg width="33" height="21" viewBox="0 0 33 21" fill="none" xmlns="http://www.w3.org/2000/svg">
<path fill-rule="evenodd" clip-rule="evenodd" d="M32.2232 1.9751C32.4679 1.1996 32.2232 0.635847 31.1404 0.635847H27.5399C26.6317 0.635847 26.2123 1.12947 25.9676 1.65747C25.9676 1.65747 24.1155 6.16748 21.5291 9.09142C20.6903 9.93705 20.306 10.2189 19.8516 10.2189C19.6068 10.2189 19.292 9.93705 19.292 9.16223V1.93866C19.292 1.02291 19.0128 0.600098 18.2435 0.600098H12.5813C12.0216 0.600098 11.6724 1.02291 11.6724 1.44572C11.6724 2.32641 12.9656 2.53816 13.1051 5.00423V10.3626C13.1051 11.5252 12.8989 11.7376 12.441 11.7376C11.218 11.7376 8.24726 7.19254 6.46526 2.0136C6.11876 0.987848 5.76676 0.600098 4.85788 0.600098H1.22306C0.174625 0.600098 0 1.09304 0 1.62172C0 2.57323 1.22306 7.36442 5.69663 13.7059C8.66732 18.0372 12.8961 20.3651 16.7056 20.3651C19.0128 20.3651 19.292 19.8364 19.292 18.9557V15.6791C19.292 14.6224 19.5017 14.4464 20.2359 14.4464C20.7598 14.4464 21.7037 14.7276 23.8357 16.8066C26.2818 19.2726 26.7012 20.4001 28.0645 20.4001H31.6642C32.7127 20.4001 33.2022 19.8714 32.9224 18.8498C32.6082 17.8282 31.4195 16.3487 29.8815 14.5873C29.0428 13.6014 27.7847 12.509 27.4003 11.9803C26.8765 11.2756 27.016 10.9937 27.4003 10.3599C27.3653 10.3599 31.7694 4.08848 32.2232 1.97235" fill="#8274D7"/>
</svg>
